<svg width="100" height="100" viewBox="0 0 100 100" fill="none" xmlns="http://www.w3.org/2000/svg">
<path d="M50 100C77.6134 100 100 77.6575 100 50C100 22.3425 77.6134 0 50 0C22.3866 0 0 22.3425 0 50C0 77.6575 22.3866 100 50 100Z" fill="#F4F8FA"/>
<path d="M20.7599 26.0859H75.9571C78.1772 26.0859 79.8615 27.7702 79.8615 29.9903V64.9766C79.8615 67.1968 78.1772 68.881 75.9571 68.881H20.7599C18.5397 68.881 16.8555 67.1968 16.8555 64.9766V29.9903C16.8555 27.7702 18.6928 26.0859 20.7599 26.0859Z" fill="url(#paint0_linear_2364_32134)"/>
<g filter="url(#filter0_bd_2364_32134)">
<path d="M84.0677 30.7191H60.7945C58.4978 30.7191 56.3543 31.4847 54.5935 32.9393L48.4689 37.9154C46.7847 39.2935 44.5646 40.1356 42.2679 40.1356H15.9324C13.253 40.1356 11.1094 42.3557 11.1094 44.9586C11.1094 45.1883 11.1094 45.418 11.1859 45.6477L16.009 71.4472C16.3918 73.897 18.4588 75.6578 20.8321 75.6578H77.1776C79.6274 75.6578 81.6179 73.9736 82.0007 71.5238L88.8142 36.2312C89.2736 33.5517 87.5128 31.1785 84.8333 30.6426C84.6036 30.7191 84.2974 30.7191 84.0677 30.7191Z" fill="url(#paint1_linear_2364_32134)" fill-opacity="0.44" shape-rendering="crispEdges"/>
<path d="M84.0677 30.7191H60.7945C58.4978 30.7191 56.3543 31.4847 54.5935 32.9393L48.4689 37.9154C46.7847 39.2935 44.5646 40.1356 42.2679 40.1356H15.9324C13.253 40.1356 11.1094 42.3557 11.1094 44.9586C11.1094 45.1883 11.1094 45.418 11.1859 45.6477L16.009 71.4472C16.3918 73.897 18.4588 75.6578 20.8321 75.6578H77.1776C79.6274 75.6578 81.6179 73.9736 82.0007 71.5238L88.8142 36.2312C89.2736 33.5517 87.5128 31.1785 84.8333 30.6426C84.6036 30.7191 84.2974 30.7191 84.0677 30.7191Z" stroke="url(#paint2_linear_2364_32134)" stroke-width="0.5" stroke-miterlimit="10" shape-rendering="crispEdges"/>
</g>
<path d="M39.1357 60.3066C40.5138 60.3066 41.6621 59.1583 41.6621 57.7803C41.6621 56.4023 40.5138 55.2539 39.1357 55.2539C37.7577 55.2539 36.6094 56.4023 36.6094 57.7803C36.6094 59.1583 37.7577 60.3066 39.1357 60.3066Z" fill="url(#paint3_linear_2364_32134)"/>
<path d="M58.8115 60.2305C60.1895 60.2305 61.3379 59.0821 61.3379 57.7041C61.3379 56.3261 60.1895 55.1777 58.8115 55.1777C57.4335 55.1777 56.2852 56.3261 56.2852 57.7041C56.2852 59.1587 57.4335 60.2305 58.8115 60.2305Z" fill="url(#paint4_linear_2364_32134)"/>
<path d="M51.3832 63.5625C51.3832 63.2453 51.1262 62.9883 50.809 62.9883H47.2109C46.8938 62.9883 46.6367 63.2453 46.6367 63.5625C46.6367 63.8796 46.8938 64.1366 47.2109 64.1366H50.809C51.1262 64.1366 51.3832 63.8796 51.3832 63.5625Z" fill="url(#paint5_linear_2364_32134)"/>
<path d="M73.5195 18.1966V14.447C73.5195 13.627 72.5869 13.1555 71.9266 13.6418L69.3806 15.5166C68.8378 15.9162 68.8378 16.7274 69.3806 17.127L71.9266 19.0019C72.5869 19.4881 73.5195 19.0166 73.5195 18.1966Z" fill="white"/>
<circle cx="34.9024" cy="12.4688" r="1.86722" fill="url(#paint6_linear_2364_32134)"/>
<circle cx="94.2727" cy="49.9836" r="1.66721" stroke="#D3EAEC"/>
<rect x="6.55469" y="34.3633" width="4.0903" height="4.0903" rx="1" transform="rotate(21.2436 6.55469 34.3633)" fill="url(#paint7_linear_2364_32134)"/>
<defs>
<filter id="filter0_bd_2364_32134" x="0.859375" y="20.3848" width="98.2773" height="65.5234" filterUnits="userSpaceOnUse" color-interpolation-filters="sRGB">
<feFlood flood-opacity="0" result="BackgroundImageFix"/>
<feGaussianBlur in="BackgroundImage" stdDeviation="5"/>
<feComposite in2="SourceAlpha" operator="in" result="effect1_backgroundBlur_2364_32134"/>
<feColorMatrix in="SourceAlpha" type="matrix" values="0 0 0 0 0 0 0 0 0 0 0 0 0 0 0 0 0 0 127 0" result="hardAlpha"/>
<feOffset dy="3"/>
<feGaussianBlur stdDeviation="2"/>
<feComposite in2="hardAlpha" operator="out"/>
<feColorMatrix type="matrix" values="0 0 0 0 0.698039 0 0 0 0 0.780392 0 0 0 0 0.843137 0 0 0 0.29 0"/>
<feBlend mode="normal" in2="effect1_backgroundBlur_2364_32134" result="effect2_dropShadow_2364_32134"/>
<feBlend mode="normal" in="SourceGraphic" in2="effect2_dropShadow_2364_32134" result="shape"/>
</filter>
<linearGradient id="paint0_linear_2364_32134" x1="49.6011" y1="-15.9914" x2="47.3242" y2="88.277" gradientUnits="userSpaceOnUse">
<stop stop-color="#3BB3C3"/>
<stop offset="1" stop-color="white"/>
</linearGradient>
<linearGradient id="paint1_linear_2364_32134" x1="49.9982" y1="34.7541" x2="49.9982" y2="75.6578" gradientUnits="userSpaceOnUse">
<stop stop-color="white"/>
<stop offset="1" stop-color="white"/>
</linearGradient>
<linearGradient id="paint2_linear_2364_32134" x1="49.9982" y1="30.6426" x2="49.9982" y2="75.6578" gradientUnits="userSpaceOnUse">
<stop stop-color="white"/>
<stop offset="1" stop-color="white" stop-opacity="0"/>
</linearGradient>
<linearGradient id="paint3_linear_2364_32134" x1="39.1357" y1="55.2539" x2="39.1357" y2="59.5234" gradientUnits="userSpaceOnUse">
<stop stop-color="#3BB3C3"/>
<stop offset="1" stop-color="#0A306A"/>
</linearGradient>
<linearGradient id="paint4_linear_2364_32134" x1="58.8115" y1="55.1777" x2="58.8115" y2="59.4473" gradientUnits="userSpaceOnUse">
<stop stop-color="#3BB3C3"/>
<stop offset="1" stop-color="#0A306A"/>
</linearGradient>
<linearGradient id="paint5_linear_2364_32134" x1="49.01" y1="62.9883" x2="49.01" y2="63.9586" gradientUnits="userSpaceOnUse">
<stop stop-color="#3BB3C3"/>
<stop offset="1" stop-color="#0A306A"/>
</linearGradient>
<linearGradient id="paint6_linear_2364_32134" x1="34.9024" y1="10.6016" x2="34.9024" y2="14.336" gradientUnits="userSpaceOnUse">
<stop stop-color="#A5D2D6"/>
<stop offset="1" stop-color="#A5D2D6" stop-opacity="0"/>
</linearGradient>
<linearGradient id="paint7_linear_2364_32134" x1="8.59984" y1="34.3633" x2="8.59984" y2="38.4536" gradientUnits="userSpaceOnUse">
<stop stop-color="#A5D2D6"/>
<stop offset="1" stop-color="#A5D2D6" stop-opacity="0"/>
</linearGradient>
</defs>
</svg>
